<?xml version="1.0" encoding="UTF-8"?>
<svg width="512" height="512" viewBox="0 0 512 512" fill="none" xmlns="http://www.w3.org/2000/svg">
  <rect width="512" height="512" fill="#2D4D39"/>
  <path d="M256 96C176.5 96 112 160.5 112 240C112 319.5 176.5 384 256 384C335.5 384 400 319.5 400 240C400 160.5 335.5 96 256 96ZM256 352C194.1 352 144 301.9 144 240C144 178.1 194.1 128 256 128C317.9 128 368 178.1 368 240C368 301.9 317.9 352 256 352Z" fill="#F6F4E8"/>
  <path d="M256 160C212.7 160 176 196.7 176 240C176 283.3 212.7 320 256 320C299.3 320 336 283.3 336 240C336 196.7 299.3 160 256 160ZM256 288C230.5 288 208 265.5 208 240C208 214.5 230.5 192 256 192C281.5 192 304 214.5 304 240C304 265.5 281.5 288 256 288Z" fill="#E87461"/>
  <path d="M256 208C239.4 208 224 223.4 224 240C224 256.6 239.4 272 256 272C272.6 272 288 256.6 288 240C288 223.4 272.6 208 256 208Z" fill="#6A994E"/>
</svg> 